<?xml version="1.0" encoding="utf-8"?>
<!-- Generator: Adobe Illustrator 21.0.2, SVG Export Plug-In . SVG Version: 6.00 Build 0)  -->
<svg version="1.1" id="レイヤー_1" xmlns="http://www.w3.org/2000/svg" xmlns:xlink="http://www.w3.org/1999/xlink" x="0px"
	 y="0px" viewBox="0 0 150 70" style="enable-background:new 0 0 150 70;" xml:space="preserve">
<style type="text/css">
	.st0{fill:#005EAC;}
</style>
<g>
	<g>
		<g>
			<path class="st0" d="M6.7,34.5c1.8-0.4,4.7,0.4,6.2,2.2c0.7,0.9,1.1,3-0.6,4c-1.2,0.7-2.4-0.4-2.9-1.6c-0.9-2.1-1.5-3.1-2.6-4.4
				V34.5z M3.9,42.3c0.7,0.8,1.9,3.1,2.3,4c0.4,1,1.4,2.4,2.9,1.5c0.8-0.5,2-2.2,0.6-3.8c-1.2-1.4-4.2-2.4-5.8-2V42.3z M4.4,58.5
				C7,60,7.1,60.3,6.6,63c-0.1,0.4-0.2,1.1-0.2,1.6c0,1.5,1.1,2.7,2.3,2.7c1.3,0,2.4-0.8,2.4-2.3c0-1.9-0.9-2.9-0.9-4.9
				c0-1.4,0.4-3.4,0.8-5.1c0.3-1.5,2.2-10,2.4-11L13.2,44c-0.9,2-5.3,11.8-6.4,13.5c-0.4,0.6-0.6,0.7-1.2,0.7
				c-0.2,0-0.9-0.1-1.2-0.1V58.5z M38,47.2c-0.5-0.7-2.5-2.1-3.1-2.5c-0.2-0.1-0.3-0.1-0.5,0.1c-0.2,0.2-1.6,2.3-1.6,2.3
				s-2.4,0-5.5,0v-3.3c3.4,0,6.4,0,6.5,0c0.4,0,0.5,0,0.8-0.3c0.2-0.2,0.2-0.4,0.1-0.6c-0.5-0.7-2.5-2.1-3.1-2.5
				c-0.2-0.1-0.3-0.1-0.5,0.1c-0.2,0.2-1.6,2.3-1.6,2.3s-0.9,0-2.1,0v-3.1c4,0,7.5,0,7.6,0c0.4,0,0.5,0,0.8-0.3
				c0.2-0.2,0.2-0.4,0.1-0.6c-0.5-0.7-2.3-2.4-2.9-2.8c-0.2-0.1-0.3-0.1-0.5,0.1c-0.2,0.2-1.8,2.6-1.8,2.6s-1.4,0-3.3,0
				c0-1.2,0.1-1.4,0.8-1.8c0.8-0.5,0.8-0.8-0.1-1.1c-1.3-0.5-3.9-1.2-5.5-1.3c0.2,0.8,0.3,2.6,0.3,4.2c-3.2,0-6.2,0-6.2,0
				c-0.6,0-1-0.2-1-0.2l-0.2,0.2c0,0,0.5,0.9,0.5,0.9s3.5,0,7,0c0,0.7,0,3.1,0,3.1s-5.3,0-5.4,0c-0.5,0-1-0.2-1-0.2l-0.2,0.2
				l0.5,0.9h6.1v3.3c0,0-7.6,0-7.7,0c-0.8,0-1.2-0.1-1.2-0.1l-0.2,0.2l0.4,0.9c0,0,22.8,0,23.1,0c0.4,0,0.5,0,0.8-0.3
				C38.2,47.6,38.2,47.4,38,47.2z M24.3,63.4c0.2,0,4.7,0.1,5,0.1c0.6,0,0.8-0.2,0.8-0.6c0-0.1,0-1.4,0-3.1h-9.5c0,2.3,0,4.3,0,4.5
				c0,0.8-0.1,1.4-0.3,1.8c-0.4,0.6-1.4,1.1-2.3,1.1c-1.4,0-2.1-0.6-1.9-2.2c0.3-1.9,0.4-4.3,0.4-6.7c0-1.4,0-9.3,0-9.3
				c1.3,0.3,2.7,1,3.8,1.5h9.9c0,0,0.6-0.9,0.7-1.1c0.1-0.2,0.4-0.3,0.7-0.1c1.2,0.7,2.2,1.1,3.4,1.7c0.6,0.3,0.6,1,0.2,1.4
				C35,52.5,34.3,53,34.3,53s0,8.8,0,9.8c0,2.1-0.2,2.9-0.7,3.5c-0.7,0.8-2.1,1.3-4.2,1.3c-0.5-1-0.5-1.8-5.2-4V63.4z M20.6,51.5
				c0,0,0,1.3,0,3.1h9.5c0-1.8,0-3.1,0-3.1H20.6z M30.1,58.8c0-1,0-2.1,0-3.1h-9.5c0,1,0,2.1,0,3.1H30.1z"/>
			<path class="st0" d="M39.2,62.1c4.2-4.4,7.8-10.1,9.1-17h-7l-0.8-1l0.1-0.2c0,0,0.4,0.1,1.2,0.1c0.2,0,6.6,0,6.6,0
				c0.2-0.3,1-1.3,1.2-1.5c0.3-0.3,0.4-0.2,0.8,0c0.5,0.3,2.6,1.9,3,2.3c0.9,0.8,0.8,1.3-0.4,1.7C50.3,54,46,58.8,39.6,62.6
				L39.2,62.1z M74.4,58.9c-4.5-2.4-9.4-6.4-11.8-10.8c2.2-0.7,4.8-1.5,6.5-2.3c0.2-0.1,0.6-0.1,0.8-0.1c0.9,0.1,1.2,0.5,2-0.1
				c0.3-0.3,0.3-0.9-0.2-1.3c-0.3-0.2-3.8-2.9-4.1-3.2c-0.3-0.2-0.7-0.2-0.8,0.2c-0.8,2.4-2.8,5.1-4.5,6.1c-2.3-3.3-3.2-8-3.2-8.7
				c0-0.9,0-0.9,0.9-1.4c1.3-0.7,0.8-1.4-0.3-1.6c-0.5-0.1-5-1.1-5.3-1.2c0.4,3.8,0.6,7.9,0.6,12.1c0,2.7,0,13.4,0,14.2
				c0,1.3-0.5,1.7-1.8,1.8c-1.6,0.1-3.6,0-5.2-0.2l-0.1,0.4c4.3,1.4,5.3,2.5,6.2,4.9c1.6,0,2.6-0.3,3.7-1.1c1.3-0.9,1.5-1.7,1.5-3.9
				c0-0.6,0-18.8,0-18.9l0.1,0c1.1,7.3,4.9,14.6,9.3,18.8c2-1.6,3.3-2.5,5.8-3.4V58.9z"/>
			<path class="st0" d="M110.7,61.4c-1.4,1.5-2.5,3-3.4,5c-4.2,0.2-8.4,0.1-12.2,0c-5.6-0.2-7.8-1-11.7-4.4
				c-1.9,2.2-5.7,5.1-8.2,5.7l-0.3-0.5c2.7-2.1,4.9-4.8,6.4-7.7c-0.3-1.6-0.5-2.6-1-4.2c-0.4,0.7-1.3,2.7-1.6,3.5
				c-0.2,0.5-1,0.6-1.4,0.1c-0.8-0.9-1.1-1.3-2-2.2C75,56.5,75,56.1,75.3,56c1.5-0.8,4.2-3,5.2-4.5c-0.5,0.2-1.3,0.1-2.2-0.1
				c-0.6-0.1-0.9-0.6-0.6-1.4c0.2-0.7,2.8-9.3,3.4-10.8h-4.4l-0.6-1l0.2-0.3c0,0,0.6,0.2,1.3,0.2c0.2,0,3.5,0,3.5,0
				c0.3-0.4,0.8-1.1,1.1-1.3c0.4-0.3,0.6-0.3,1-0.1c0.2,0.1,2.1,1.3,2.6,1.5c1.7,0.9,1.6,1.6-0.8,2.6c-0.2,0.8-1.5,5.3-2.1,7.3h2
				c0.2-0.3,0.9-1.1,1.2-1.3c0.3-0.2,0.5-0.2,0.9,0c0.8,0.5,1.9,1.3,2.6,1.9c1,0.9,0.9,1.4-0.9,2.1c-1,3.7-2.2,6.3-4.2,9.4
				c1.3,1.2,3.3,1.9,6.1,2c7.2,0.3,13,0.1,19.9-1.3L110.7,61.4z M82.6,49.5c-0.4,0.9-0.9,1.6-1.3,1.8c1.2,0.3,1.3,1,0.7,1.8
				c-0.3,0.5-0.4,0.7-0.3,1.2c0,0.8,0.3,1.9,0.6,2.5c0.9-1.7,1.9-5.3,2.3-7.4H82.6z M108.7,44.4h-4c0,1.1,0,1.6,0.1,2.7
				c0.1,1.6,0.2,2.1-2.3,3.1c0,0,2,1.8,2.3,2c0.7,0.6,0.5,1.2-0.4,1.2H98c0,1.2,0,2.3,0,3.2c2.3,0,4.1,0,4.1,0s1.9-2,2.1-2.2
				c0.4-0.4,0.9-0.5,1.4-0.1c0.2,0.2,2.3,1.8,2.6,2.1c0.8,0.7,0.4,1.3-0.7,1.3H98c0,1.2,0,2,0,2.2c0,2-2.1,2.4-2.9,2.4
				c-1.4,0-1.9-0.4-1.9-1.8c0-0.1,0-1.2,0-2.8h-5.8l-0.5-1l0.2-0.3c0.5,0.1,1.1,0.2,1.6,0.2c0.1,0,2.1,0,4.5,0c0-1,0-2.1,0-3.2h-3.5
				l-0.5-1l0.2-0.3c0.5,0.1,1.1,0.2,1.6,0.2c0.1,0,1,0,2.2,0c0-1.1,0-2.2,0-3.4H90l-0.5-1l0.2-0.3c0.5,0.1,1.1,0.2,1.6,0.2
				c0,0,0.8,0,1.9,0c0-1.2,0-2.3,0-3.4h-7.7l-0.5-1l0.2-0.3c0.5,0.1,1.1,0.2,1.6,0.2c0.1,0,3,0,6.4,0c0-1.1,0-2.1,0-3.1H88l-0.5-1
				l0.2-0.3c0.5,0.1,1.1,0.2,1.6,0.2c0.1,0,1.8,0,3.9,0c0-1.6,0-2.7,0-2.9c0-0.6-0.1-1.2-0.3-2.1c0,0,5.3,1.4,5.6,1.6
				c0.7,0.2,0.9,0.9,0.3,1.5c-0.3,0.2-0.8,0.6-0.8,0.6s0,0.5,0,1.3c1.5,0,2.6,0,2.6,0s0.8-1,1.1-1.3c0.3-0.3,0.5-0.4,1-0.2
				c0.3,0.1,2.4,1.2,2.7,1.5c0.6,0.4,0.7,1,0.1,1.4c-0.3,0.2-0.8,0.5-0.8,0.5c0,0.2,0,1.1,0,2c0.4-0.5,1.1-1.3,1.2-1.5
				c0.4-0.4,0.8-0.5,1.2-0.1c0.2,0.1,1.9,1.5,2.1,1.7C110.1,43.8,109.6,44.4,108.7,44.4z M98,43.3c0.9,0,1.8,0,2.5,0v-3.1H98
				C98,41.1,98,42.2,98,43.3z M98,47.8c1.4,0,2.5,0,2.5,0v-3.4H98C98,45.5,98,46.6,98,47.8z M101.9,50.1c-0.7-0.1-0.9-0.3-1.1-1.2
				H98c0,1.1,0,2.3,0,3.4c1,0,1.8,0,1.8,0L101.9,50.1z"/>
			<path class="st0" d="M115.6,37.5c0.3,0,3.6,0,3.6,0s1.5-2,1.6-2.1c0.3-0.4,0.8-0.4,1.1,0c0.2,0.2,1.8,1.8,2,1.9
				c0.6,0.5,0.4,1.1-0.3,1.1c-0.3,0-9.2,0-9.2,0l-0.5-0.8l0.2-0.2C114.7,37.5,115.1,37.5,115.6,37.5z M112.3,41.9l-0.1,0.3l0.7,1
				c0,0,12.7,0,13,0c0.7,0,0.9-0.5,0.3-1.1c-0.2-0.2-2.5-2.3-2.5-2.3c-0.4-0.4-0.9-0.4-1.1,0c-0.1,0.2-1.3,2.3-1.3,2.3s-7.1,0-7.5,0
				C113.3,42,112.8,42,112.3,41.9z M114.8,46.3l-0.2,0.3l0.5,0.7c0,0,8.8,0,9.1,0c0.7,0,0.9-0.5,0.3-1.1c-0.2-0.1-1.9-1.7-2.1-1.8
				c-0.4-0.4-0.9-0.4-1.1,0c-0.2,0.3-1.3,2-1.3,2s-3.4,0-3.7,0C115.6,46.4,115.3,46.4,114.8,46.3z M115.3,50.5l-0.2,0.2l0.3,0.9
				c0,0,8.4,0,8.7,0c0.8,0,0.9-0.6,0.3-1.1c-0.2-0.1-1.7-1.5-1.9-1.6c-0.4-0.4-0.8-0.3-1.1,0.1c-0.1,0.2-1.5,1.8-1.5,1.8
				s-3.1,0-3.4,0C116.1,50.7,115.7,50.6,115.3,50.5z M125.4,56.9c0,2.3,0.1,3.9,0.2,6.2c0.1,1.4-1.3,2-2.5,2c-1.2,0-1.9-0.6-2-1.6
				h-2.7c0,0.8,0,1.3,0,1.5c0,1.6-0.9,2.3-2.7,2.3c-1.3,0-1.7-0.8-1.6-2c0.4-3,0.4-7,0.1-11.6c1.6,0.5,2.9,1,4.4,1.8h2.8
				c0,0,0.9-1.3,1.1-1.5c0.2-0.3,0.5-0.3,0.9-0.2c0.2,0.1,2.3,1.3,2.6,1.5C126.6,55.8,126.3,56.6,125.4,56.9z M118.4,62.4h2.7
				c0-1.9,0-6,0-6h-2.7C118.4,56.4,118.4,59.8,118.4,62.4z M127.7,35.4c1.2,7-0.2,12-3.2,14.6l0.2,0.4c5.7-2.2,7.5-5.7,7.5-11.9h2.4
				c0,0,0,6.4,0,7c0,1.7,1.1,3.1,5.8,3.1c3.2,0,5-1.5,5-3.1c0-0.8-1.2-0.7-1.4-2c-0.1-0.5-1-4.9-1-4.9h-0.3c0,0-1.2,5.1-1.3,5.4
				c-0.2,0.5-0.4,0.8-1.5,0.8c-1.2,0-1.5-0.4-1.5-1.3c0-0.5,0-3.7,0-3.7s0.4-0.3,0.7-0.5c0.5-0.4,0.5-0.9,0-1.5
				c-0.5-0.5-2-1.7-2.6-2c-0.3-0.2-0.5-0.2-0.7,0.1c-0.2,0.2-1,1.6-1,1.6h-2.2L127.7,35.4z M146.1,62.7V63c-1.5,0.8-3.6,2.5-4.8,4.1
				c-1.7-0.9-4.5-2.4-7-5c-3.6,3.1-8.4,5.1-13.9,5.6l-0.2-0.5c5.2-1.9,9.2-4.4,12-7.8c-1.3-2-2.4-4.5-3-7.6c-0.8,0-3,0-3,0l-0.5-1
				l0.2-0.3c0.9,0.1,2.3,0.2,3.1,0.2c0.6,0,7.4,0,7.4,0s0.8-1,1-1.3c0.4-0.6,0.8-0.6,1.4-0.3c0.4,0.3,2.3,1.5,2.9,1.9
				c0.6,0.5,0.7,1,0,1.4c-0.2,0.1-1,0.5-1.3,0.7c-0.8,2.3-1.9,4.3-3.4,6.1C139.5,60.9,142.5,61.9,146.1,62.7z M133.8,57
				c0.9-1.6,1.7-3.3,2.2-5.3c0,0-3.3,0-5.8,0C131.2,53.8,132.4,55.5,133.8,57z"/>
		</g>
		<path class="st0" d="M141.3,28c0,3.1-3.8,5.6-8.4,5.6c-4.6,0-8.4-2.5-8.4-5.6s3.8-5.6,8.4-5.6C137.6,22.4,141.3,24.9,141.3,28z
			 M133.1,23.9c-3.2-0.1-5.8,1.6-5.9,3.9c-0.1,2.3,2.4,4.2,5.6,4.3c3.2,0.1,5.8-1.6,5.9-3.9C138.8,25.9,136.3,24,133.1,23.9z
			 M130,30.3c0.3,0.4,0.8,0.6,1.3,0.4c0.6-0.2,1.5-0.8,2.5-1.5c1-0.8,1.8-1.5,2.1-2c0.2-0.4,0.2-0.9-0.1-1.3
			c-0.3-0.4-0.8-0.6-1.3-0.4c-0.6,0.2-1.5,0.8-2.5,1.5c-1,0.8-1.8,1.5-2.1,2C129.7,29.3,129.7,29.9,130,30.3z"/>
		<g>
			<path class="st0" d="M35.3,29c0,0.3,0.2,0.9,1.2,0.9c0.5,0,1.1-0.1,1.1-0.7c0-0.4-0.4-0.5-1-0.7L36,28.4
				c-0.9-0.2-1.7-0.4-1.7-1.6c0-0.6,0.3-1.7,2.1-1.7c1.7,0,2.1,1.1,2.1,1.8h-1.1c0-0.2-0.1-0.8-1.1-0.8c-0.4,0-1,0.2-1,0.7
				c0,0.4,0.3,0.5,0.6,0.6l1.3,0.3c0.7,0.2,1.4,0.5,1.4,1.5c0,1.6-1.7,1.8-2.2,1.8c-2,0-2.3-1.1-2.3-1.8H35.3z"/>
			<path class="st0" d="M40.4,28.3v2.4h-1.1v-5.5h1.1v2.1h2.1v-2.1h1.1v5.5h-1.1v-2.4H40.4z"/>
			<path class="st0" d="M45.8,30.7h-1.1v-5.5h1.1V30.7z"/>
			<path class="st0" d="M53,30.7h-1v-4.6h0l-1.2,4.6h-1.6L48,26.2h0v4.6h-1.2v-5.5h2.1l1.1,4.3H50l1.1-4.3H53V30.7z"/>
			<path class="st0" d="M55.1,30.7H54v-5.5h1.1V30.7z"/>
			<path class="st0" d="M60.1,30.7h-4.3v-1l2.8-3.5h-2.7v-1h4.2v0.9l-2.9,3.6h2.9V30.7z"/>
			<path class="st0" d="M65.2,28.8c0,1.4-0.9,2.1-2.2,2.1c-0.5,0-1.2-0.1-1.7-0.7c-0.3-0.3-0.4-0.8-0.4-1.3v-3.6H62v3.5
				c0,0.8,0.4,1.1,1,1.1c0.8,0,1.1-0.4,1.1-1v-3.6h1.2V28.8z"/>
			<path class="st0" d="M71.9,27c-0.1-0.3-0.3-0.9-1.2-0.9c-0.6,0-1.4,0.4-1.4,1.9c0,1,0.4,1.9,1.4,1.9c0.6,0,1.1-0.4,1.2-1h1.1
				c-0.2,1.2-1,2-2.4,2c-1.5,0-2.5-1-2.5-2.9c0-1.9,1.1-2.9,2.5-2.9c1.6,0,2.3,1.1,2.4,1.9H71.9z"/>
			<path class="st0" d="M76.1,25.1c0.7,0,2.6,0.3,2.6,2.9c0,2.6-1.9,2.9-2.6,2.9c-0.7,0-2.6-0.3-2.6-2.9
				C73.5,25.4,75.4,25.1,76.1,25.1z M76.1,29.9c0.6,0,1.5-0.4,1.5-1.9c0-1.5-0.9-1.9-1.5-1.9c-0.6,0-1.5,0.4-1.5,1.9
				C74.7,29.5,75.5,29.9,76.1,29.9z"/>
			<path class="st0" d="M79.5,25.3h2.8c1.5,0,1.7,1.1,1.7,1.5c0,0.6-0.3,1.1-0.8,1.3c0.4,0.2,0.7,0.4,0.7,1.4c0,0.8,0,1,0.2,1.1v0.1
				h-1.3c-0.1-0.3-0.1-0.5-0.1-1.1c0-0.7,0-1-0.9-1h-1.2v2.1h-1.1V25.3z M82,27.7c0.6,0,0.9-0.2,0.9-0.7c0-0.3-0.1-0.7-0.8-0.7h-1.4
				v1.5H82z"/>
			<path class="st0" d="M85.9,30.7h-1.1v-5.5h2.5c1.1,0,1.7,0.7,1.7,1.7c0,0.5-0.3,1.7-1.7,1.7h-1.3V30.7z M87,27.8
				c0.9,0,0.9-0.6,0.9-0.9c0-0.5-0.3-0.8-1-0.8h-0.9v1.6H87z"/>
			<path class="st0" d="M92,25.1c0.7,0,2.6,0.3,2.6,2.9c0,2.6-1.9,2.9-2.6,2.9s-2.6-0.3-2.6-2.9C89.3,25.4,91.2,25.1,92,25.1z
				 M92,29.9c0.6,0,1.5-0.4,1.5-1.9c0-1.5-0.9-1.9-1.5-1.9c-0.6,0-1.5,0.4-1.5,1.9C90.5,29.5,91.3,29.9,92,29.9z"/>
			<path class="st0" d="M95.3,25.3h2.8c1.5,0,1.7,1.1,1.7,1.5c0,0.6-0.3,1.1-0.8,1.3c0.4,0.2,0.7,0.4,0.7,1.4c0,0.8,0,1,0.2,1.1v0.1
				h-1.3c-0.1-0.3-0.1-0.5-0.1-1.1c0-0.7,0-1-0.9-1h-1.2v2.1h-1.1V25.3z M97.8,27.7c0.6,0,0.9-0.2,0.9-0.7c0-0.3-0.1-0.7-0.8-0.7
				h-1.4v1.5H97.8z"/>
			<path class="st0" d="M101.3,30.7h-1.2l1.9-5.5h1.4l1.9,5.5h-1.3l-0.4-1.2h-2L101.3,30.7z M102,28.7h1.4l-0.7-2.3h0L102,28.7z"/>
			<path class="st0" d="M107.7,30.7h-1.1v-4.5h-1.6v-1h4.4v1h-1.6V30.7z"/>
			<path class="st0" d="M111.1,30.7h-1.1v-5.5h1.1V30.7z"/>
			<path class="st0" d="M114.5,25.1c0.7,0,2.6,0.3,2.6,2.9c0,2.6-1.9,2.9-2.6,2.9c-0.7,0-2.6-0.3-2.6-2.9
				C111.8,25.4,113.7,25.1,114.5,25.1z M114.5,29.9c0.6,0,1.5-0.4,1.5-1.9c0-1.5-0.9-1.9-1.5-1.9c-0.6,0-1.5,0.4-1.5,1.9
				C113,29.5,113.9,29.9,114.5,29.9z"/>
			<path class="st0" d="M121.4,25.3h1v5.5H121l-2.2-4.2h0v4.2h-1v-5.5h1.4l2.2,4.1h0V25.3z"/>
		</g>
	</g>
	<g>
		<path class="st0" d="M4.8,3.7V3h7.3v0.5c-0.7,0.9-1.7,1.6-3.3,2.4v0.9H13v0.7H8.9v3.4c0,0.7-0.3,0.9-1.3,0.9H6.4l-0.2-0.8l0.7,0
			c0.2,0,0.4,0,0.7,0c0.4,0,0.6-0.1,0.6-0.3V7.6H3.9V6.9h4.2V5.2l0.4,0.1c1.2-0.5,1.8-0.9,2.5-1.6H4.8z"/>
		<path class="st0" d="M22.3,2.3c0.6,0.6,0.9,0.9,1.3,1.5l-0.5,0.4c-0.4-0.6-0.6-0.8-1.3-1.5L22.3,2.3z M20.8,2.5
			c0.6,0.5,0.9,0.8,1.4,1.4l-0.5,0.4c-0.5-0.6-0.8-0.9-1.3-1.4L20.8,2.5z M17.3,2.8c0.2,1.3,0.4,2,0.9,3.2c1.1-0.4,1.8-0.7,3.5-1.1
			L22,5.7c-2.1,0.5-3.4,1-4.3,1.4c-1.3,0.6-1.9,1.4-1.9,2.2c0,0.6,0.3,1,1.1,1.2c0.5,0.1,1.2,0.2,2,0.2c1.1,0,2-0.1,3.3-0.4
			l-0.1,0.9c-1.1,0.2-2.1,0.3-3.1,0.3c-1.2,0-2.2-0.1-2.8-0.4c-0.8-0.3-1.2-0.9-1.2-1.7c0-0.7,0.3-1.3,0.8-1.8
			c0.4-0.4,0.8-0.7,1.7-1.2c-0.4-0.7-0.8-2-1-3.3L17.3,2.8z"/>
		<path class="st0" d="M27.7,7.3c0.1-0.8,0.1-0.9,0.2-1.7l-2.3,0V4.9l2.4,0c0.1-0.9,0.1-1,0.2-2l0.9,0c-0.2,1.1-0.2,1.2-0.3,2l2.3,0
			l0,0.8l-2.4,0c-0.1,0.8-0.1,0.9-0.2,1.7l2.3,0l0,0.8l-2.4,0c-0.1,0.8-0.1,1-0.1,1.4c0,0.6,0.2,1,0.6,1.2c0.3,0.2,0.9,0.3,1.5,0.3
			c1.4,0,2.2-0.6,2.2-1.6c0-0.7-0.2-1.3-0.7-2.4l0.9,0c0.5,1,0.7,1.6,0.7,2.4c0,1.5-1.1,2.3-3,2.3c-2,0-2.9-0.7-2.9-2.2
			c0-0.3,0-0.7,0.1-1.4l-2.1,0V7.4L27.7,7.3z"/>
		<path class="st0" d="M40,6.1c1.1-0.1,1.8-0.2,2.7-0.2c0.6,0,0.9,0,1.5,0.1l0,0.8c-1-0.1-1.3-0.1-1.6-0.1c-0.7,0-1.6,0.1-2.5,0.2
			L40,6.1z M40.9,8.6c-0.4,0.7-0.6,1-0.6,1.4c0,0.6,0.7,0.9,2.3,0.9c0.6,0,1,0,1.9-0.2l0,0.9c-0.7,0.1-1,0.1-1.7,0.1
			c-1.1,0-1.7-0.1-2.2-0.3c-0.7-0.3-1-0.7-1-1.4c0-0.5,0.1-0.8,0.6-1.7L40.9,8.6z M41.1,5.1l-2.3,0c-0.7,3-1.1,4.3-1.9,6.5l-0.8-0.4
			c0.9-2.4,1.4-3.8,1.9-6.1l-2.3,0V4.5l2.4,0c0.1-0.7,0.2-0.9,0.3-1.7l0.8,0.1c-0.1,0.8-0.1,0.9-0.3,1.6l2.1,0V5.1z"/>
		<path class="st0" d="M46.7,4.6h2.5c0.1-0.6,0.2-0.9,0.3-1.7L50.3,3c-0.2,0.9-0.2,1.2-0.4,1.7l4.6,0l0,0.7l-4.8,0
			c-0.3,0.9-0.5,1.4-0.8,2.3c1.1-0.7,2-1,3.2-1c1.8,0,2.7,0.7,2.7,2.1c0,1.2-0.7,2-1.9,2.4c-0.8,0.2-1.8,0.4-2.9,0.4
			c-0.2,0-0.5,0-1,0l-0.3-0.8c0.4,0,0.7,0,0.9,0c1.6,0,2.8-0.2,3.4-0.6C53.7,9.9,54,9.4,54,8.8c0-0.9-0.7-1.4-1.8-1.4
			c-0.9,0-1.9,0.2-2.6,0.6c-0.6,0.3-1,0.7-1.5,1.5l-0.7-0.5c0.7-1.1,1.1-2,1.6-3.7l-2.3,0V4.6z"/>
		<path class="st0" d="M60.4,4.2C61.6,4,62.7,4,63.8,4c0.5,0,1,0,2,0.1l0,0.8c-1.1-0.1-1.5-0.1-2-0.1c-0.9,0-1.9,0.1-3.3,0.2V4.2z
			 M61.7,7.5C61.2,8.3,61,8.8,61,9.2c0,0.4,0.3,0.7,0.7,0.9c0.5,0.2,0.9,0.2,1.8,0.2c1,0,1.5,0,2.6-0.2l0,0.9
			c-0.8,0.1-1.3,0.1-2.1,0.1c-1.5,0-2.3-0.1-2.9-0.5c-0.6-0.3-0.9-0.8-0.9-1.5c0-0.6,0.2-1.3,0.7-2L61.7,7.5z M59.4,3.3
			c-0.2,0.9-0.3,1.3-0.5,1.9c-0.1,0.9-0.2,2-0.2,2.8c0,1.2,0.1,2.1,0.4,3.4l-0.8,0.2c-0.2-1.1-0.4-2.4-0.4-3.5
			c0-1.6,0.2-3.3,0.7-4.9L59.4,3.3z"/>
		<path class="st0" d="M76,5.7c-0.3-0.4-0.5-0.8-0.7-1.3H74c-0.3,0.6-0.4,0.9-0.8,1.3H76z M77.5,7.3v0.7h-3.8l-0.2,0.9h3.6v0.6
			c-0.1,2.2-0.4,2.5-2.1,2.5h-1.2l-0.2-0.7c0.7,0,1,0,1.6,0c0.9,0,1-0.2,1.1-1.7h-3.8L73,7.9h-1.1V7.3H77.5z M73.1,6.3V5.8
			c-0.4,0.5-0.6,0.6-1.1,1l-0.5-0.6c0.9-0.6,1.4-1.1,1.7-1.9h-1.5V3.7h1.8c0.1-0.4,0.2-0.5,0.2-0.9l0.7,0.1
			c-0.1,0.4-0.1,0.5-0.2,0.8h3.4v0.7h-1.5c0.3,0.8,0.8,1.4,1.7,2L77.3,7c-0.6-0.4-0.8-0.7-1.2-1.2v0.6H73.1z M69.5,11H71V9.2h-1.5
			V11z M69.5,9.2 M71.5,3.8h-2.6V3.2h2.6V3.8z M71.5,7.9h-2.7V7.2h2.7V7.9z M71.5,7.2 M68.8,5.9h2.6v0.7h-2.6V5.9z M68.8,8.6h2.9
			v3.1h-2.9V8.6z M71.7,5.2h-3.1V4.5h3.1V5.2z M71.7,4.5"/>
		<path class="st0" d="M80.4,5.3l2-0.1V2.9h0.8l0,3c1.6-1.5,2.6-2.1,3.5-2.1c0.9,0,1.3,0.5,1.3,1.6c0,0.4,0,0.7-0.1,1.8
			c-0.1,1.4-0.1,2.1-0.1,2.6c0,0.3,0.1,0.5,0.2,0.5c0.1,0,0.3-0.1,0.5-0.3c0.2-0.2,0.4-0.5,0.8-1.2l0.4,0.9
			c-0.6,1.1-1.1,1.5-1.8,1.5c-0.7,0-1-0.4-1-1.4c0-0.5,0-0.9,0.1-2.5c0.1-1.1,0.1-1.5,0.1-1.9c0-0.5-0.2-0.8-0.6-0.8
			c-0.4,0-0.8,0.2-1.5,0.7c-0.7,0.5-1.3,1-2,1.7l0,4.8h-0.8l0-4.3c-0.5,0.9-0.7,1.3-1.5,2.9l-0.5-0.8c1-1.5,1.5-2.4,2-3.6l-2,0.2
			V5.3z"/>
		<path class="st0" d="M96.1,10.8c-0.3-0.9-0.8-1.4-1.5-1.4c-0.4,0-0.7,0.2-0.7,0.5c0,0.5,0.8,0.9,1.9,0.9
			C95.9,10.9,95.9,10.9,96.1,10.8L96.1,10.8z M92.5,3.3l5.8-0.1l0,0.6c-1.6,1.3-1.9,1.5-3.3,2.6c0.9-0.3,1.5-0.4,2.1-0.4
			c1.7,0,2.7,0.9,2.7,2.4c0,1.9-1.5,3.1-3.9,3.1c-1.8,0-2.8-0.6-2.8-1.6c0-0.7,0.6-1.3,1.5-1.3c1.1,0,1.9,0.7,2.3,2
			c0.6-0.1,0.9-0.3,1.2-0.5C98.6,9.8,99,9.1,99,8.5c0-1-0.7-1.7-2-1.7c-0.7,0-1.6,0.2-2.4,0.5c-0.7,0.3-1,0.5-2.4,1.4l-0.5-0.8
			c1.9-1.1,2.6-1.7,5.2-3.9l-4.3,0.1V3.3z"/>
		<path class="st0" d="M103.9,3l0,5.3c0,1,0,1.3,0.1,1.6c0.2,0.6,0.8,0.9,1.7,0.9c0.8,0,1.7-0.3,2.4-0.9c0.8-0.6,1.2-1.3,1.7-2.9
			l0.7,0.7c-0.7,1.7-1.2,2.4-2.1,3c-0.8,0.6-1.7,0.9-2.7,0.9c-1.1,0-1.9-0.3-2.3-1c-0.3-0.4-0.3-0.8-0.3-2.1V8.2l0-5.2H103.9z"/>
		<path class="st0" d="M121,2.3c0.5,0.6,0.7,1,0.9,1.7l-0.5,0.3c-0.3-0.8-0.5-1.1-0.9-1.7L121,2.3z M119.8,2.5c0.4,0.6,0.7,1,1,1.8
			l-0.5,0.3c-0.4-0.8-0.6-1.2-1-1.8L119.8,2.5z M113.6,3.6c1,0,1.5,0,2.2,0c1.5,0,2.3,0,3.5,0.2v0.7c-0.6,0.2-1.5,0.7-2.5,1.3
			l-0.5-0.5c0.6-0.4,0.9-0.6,1.4-0.9c-0.8,0-1.2,0-1.8,0c-1,0-1.6,0-2.4,0L113.6,3.6z M114.7,7.5c-0.6,0.7-0.9,1.3-0.9,1.9
			c0,0.5,0.3,0.8,1,1c0.6,0.2,1.5,0.3,2.6,0.3c1.2,0,1.8-0.1,3.2-0.3l0,0.9c-1.1,0.1-1.7,0.2-2.6,0.2c-1.7,0-2.9-0.1-3.6-0.4
			c-0.9-0.3-1.3-0.9-1.3-1.7c0-0.7,0.3-1.3,1-2.2L114.7,7.5z"/>
		<path class="st0" d="M125.9,2.8c0.2,1.3,0.4,2,0.9,3.2c1.1-0.4,1.8-0.7,3.5-1.1l0.3,0.8c-2.1,0.5-3.4,1-4.3,1.4
			c-1.3,0.6-1.9,1.4-1.9,2.2c0,0.6,0.3,1,1.1,1.2c0.5,0.1,1.2,0.2,2,0.2c1.1,0,2-0.1,3.3-0.4l-0.1,0.9c-1.1,0.2-2.1,0.3-3.1,0.3
			c-1.2,0-2.2-0.1-2.8-0.4c-0.8-0.3-1.2-0.9-1.2-1.7c0-0.7,0.3-1.3,0.8-1.8c0.4-0.4,0.8-0.7,1.7-1.2c-0.4-0.7-0.8-2-1-3.3L125.9,2.8
			z"/>
		<path class="st0" d="M137,4.9c-0.4,0.6-0.4,0.7-0.9,1.4c0.5-0.2,0.7-0.3,1.2-0.3c0.9,0,1.4,0.4,1.6,1.3c1.1-0.4,1.7-0.6,2.9-1
			l0.3,0.9c-1.2,0.3-1.7,0.4-3.1,1c0,1,0.1,1.1,0.1,2.1l-0.9,0c0-0.5,0-0.9,0-1.2l0-0.6c-1.3,0.6-2,1.2-2,1.7c0,0.5,0.7,0.7,2.2,0.7
			c1,0,1.7-0.1,2.5-0.2l-0.1,0.9c-0.7,0.1-1.2,0.1-2.1,0.1c-2.4,0-3.4-0.4-3.4-1.4c0-0.9,0.8-1.7,2.7-2.6c-0.1-0.7-0.4-0.9-1-0.9
			c-1,0-1.6,0.5-3.1,2.3l-0.7-0.7c1.3-1.1,2-2,2.7-3.4l-2.3,0V4.1h2.6c0.3-0.6,0.3-0.7,0.6-1.4l0.9,0.2c-0.2,0.6-0.3,0.7-0.5,1.1
			l3.3-0.1l0,0.8L137,4.9z"/>
		<path class="st0" d="M143.5,10.4c0,0.5,0.4,0.9,1,0.9c0.5,0,1-0.4,1-0.9c0-0.5-0.4-0.9-1-0.9C143.9,9.5,143.5,9.9,143.5,10.4
			 M146.1,10.4c0,0.9-0.7,1.6-1.6,1.6c-0.9,0-1.6-0.7-1.6-1.6c0-0.9,0.7-1.6,1.7-1.6C145.3,8.9,146.1,9.6,146.1,10.4"/>
	</g>
</g>
</svg>
